<mxfile host="app.diagrams.net" modified="2024-01-16T17:27:00.881Z" agent="Mozilla/5.0 (X11; Linux x86_64; rv:121.0) Gecko/20100101 Firefox/121.0" etag="VIe3i7vWqcZdAEJPAriU" version="22.1.18" type="device">
  <diagram name="Page-1" id="T9KBAQb_p0c1t4ilmotb">
    <mxGraphModel dx="947" dy="515" grid="1" gridSize="10" guides="1" tooltips="1" connect="1" arrows="1" fold="1" page="1" pageScale="1" pageWidth="827" pageHeight="1169" math="0" shadow="0">
      <root>
        <mxCell id="0" />
        <mxCell id="1" parent="0" />
        <mxCell id="LEV1PpEmKI19S0tq_E49-1" value="&lt;div&gt;sync_pulse&lt;/div&gt;&lt;div&gt;module&lt;br&gt;&lt;/div&gt;" style="rounded=0;whiteSpace=wrap;html=1;" vertex="1" parent="1">
          <mxGeometry x="140" y="40" width="70" height="80" as="geometry" />
        </mxCell>
        <mxCell id="LEV1PpEmKI19S0tq_E49-2" value="&lt;div&gt;VRAM&lt;/div&gt;&lt;div&gt;module&lt;br&gt;&lt;/div&gt;" style="rounded=0;whiteSpace=wrap;html=1;" vertex="1" parent="1">
          <mxGeometry x="250" y="100" width="50" height="90" as="geometry" />
        </mxCell>
        <mxCell id="LEV1PpEmKI19S0tq_E49-3" value="is it in displaying time" style="rounded=0;whiteSpace=wrap;html=1;" vertex="1" parent="1">
          <mxGeometry x="350" y="80" width="80" height="100" as="geometry" />
        </mxCell>
        <mxCell id="LEV1PpEmKI19S0tq_E49-4" value="sync" style="rounded=0;whiteSpace=wrap;html=1;" vertex="1" parent="1">
          <mxGeometry x="90" y="200" width="40" height="20" as="geometry" />
        </mxCell>
        <mxCell id="LEV1PpEmKI19S0tq_E49-5" value="reset" style="endArrow=classic;html=1;rounded=0;labelPosition=center;verticalLabelPosition=top;align=center;verticalAlign=bottom;labelBackgroundColor=none;" edge="1" parent="1">
          <mxGeometry width="50" height="50" relative="1" as="geometry">
            <mxPoint x="30" y="210" as="sourcePoint" />
            <mxPoint x="70" y="210" as="targetPoint" />
          </mxGeometry>
        </mxCell>
        <mxCell id="LEV1PpEmKI19S0tq_E49-6" value="clk" style="endArrow=classic;html=1;rounded=0;labelPosition=center;verticalLabelPosition=top;align=center;verticalAlign=bottom;labelBackgroundColor=none;" edge="1" parent="1">
          <mxGeometry width="50" height="50" relative="1" as="geometry">
            <mxPoint x="30" y="230" as="sourcePoint" />
            <mxPoint x="70" y="230" as="targetPoint" />
          </mxGeometry>
        </mxCell>
        <mxCell id="LEV1PpEmKI19S0tq_E49-7" value="" style="endArrow=classic;html=1;rounded=0;" edge="1" parent="1">
          <mxGeometry width="50" height="50" relative="1" as="geometry">
            <mxPoint x="70" y="209.71" as="sourcePoint" />
            <mxPoint x="90" y="209.71" as="targetPoint" />
          </mxGeometry>
        </mxCell>
        <mxCell id="LEV1PpEmKI19S0tq_E49-8" value="" style="endArrow=none;html=1;rounded=0;" edge="1" parent="1">
          <mxGeometry width="50" height="50" relative="1" as="geometry">
            <mxPoint x="70" y="230" as="sourcePoint" />
            <mxPoint x="400" y="230" as="targetPoint" />
          </mxGeometry>
        </mxCell>
        <mxCell id="LEV1PpEmKI19S0tq_E49-9" value="" style="endArrow=classic;html=1;rounded=0;" edge="1" parent="1">
          <mxGeometry width="50" height="50" relative="1" as="geometry">
            <mxPoint x="109.71000000000001" y="230" as="sourcePoint" />
            <mxPoint x="109.71000000000001" y="220" as="targetPoint" />
          </mxGeometry>
        </mxCell>
        <mxCell id="LEV1PpEmKI19S0tq_E49-11" value="" style="endArrow=none;html=1;rounded=0;" edge="1" parent="1">
          <mxGeometry width="50" height="50" relative="1" as="geometry">
            <mxPoint x="130" y="210" as="sourcePoint" />
            <mxPoint x="380" y="210" as="targetPoint" />
          </mxGeometry>
        </mxCell>
        <mxCell id="LEV1PpEmKI19S0tq_E49-12" value="" style="endArrow=classic;html=1;rounded=0;" edge="1" parent="1">
          <mxGeometry width="50" height="50" relative="1" as="geometry">
            <mxPoint x="160" y="210" as="sourcePoint" />
            <mxPoint x="160" y="120" as="targetPoint" />
          </mxGeometry>
        </mxCell>
        <mxCell id="LEV1PpEmKI19S0tq_E49-13" value="" style="endArrow=classic;html=1;rounded=0;" edge="1" parent="1">
          <mxGeometry width="50" height="50" relative="1" as="geometry">
            <mxPoint x="400" y="230" as="sourcePoint" />
            <mxPoint x="400" y="180" as="targetPoint" />
          </mxGeometry>
        </mxCell>
        <mxCell id="LEV1PpEmKI19S0tq_E49-14" value="" style="endArrow=classic;html=1;rounded=0;" edge="1" parent="1">
          <mxGeometry width="50" height="50" relative="1" as="geometry">
            <mxPoint x="380" y="210" as="sourcePoint" />
            <mxPoint x="380" y="180" as="targetPoint" />
          </mxGeometry>
        </mxCell>
        <mxCell id="LEV1PpEmKI19S0tq_E49-15" value="" style="endArrow=classic;html=1;rounded=0;" edge="1" parent="1">
          <mxGeometry width="50" height="50" relative="1" as="geometry">
            <mxPoint x="270" y="210" as="sourcePoint" />
            <mxPoint x="270" y="190" as="targetPoint" />
          </mxGeometry>
        </mxCell>
        <mxCell id="LEV1PpEmKI19S0tq_E49-16" value="" style="endArrow=classic;html=1;rounded=0;" edge="1" parent="1">
          <mxGeometry width="50" height="50" relative="1" as="geometry">
            <mxPoint x="280" y="200" as="sourcePoint" />
            <mxPoint x="280" y="190" as="targetPoint" />
          </mxGeometry>
        </mxCell>
        <mxCell id="LEV1PpEmKI19S0tq_E49-17" value="" style="endArrow=none;dashed=1;html=1;dashPattern=1 3;strokeWidth=2;rounded=0;" edge="1" parent="1">
          <mxGeometry width="50" height="50" relative="1" as="geometry">
            <mxPoint x="280" y="220" as="sourcePoint" />
            <mxPoint x="280" y="200" as="targetPoint" />
          </mxGeometry>
        </mxCell>
        <mxCell id="LEV1PpEmKI19S0tq_E49-18" value="" style="endArrow=none;html=1;rounded=0;" edge="1" parent="1">
          <mxGeometry width="50" height="50" relative="1" as="geometry">
            <mxPoint x="280" y="230" as="sourcePoint" />
            <mxPoint x="280" y="220" as="targetPoint" />
          </mxGeometry>
        </mxCell>
        <mxCell id="LEV1PpEmKI19S0tq_E49-19" value="" style="endArrow=none;dashed=1;html=1;dashPattern=1 3;strokeWidth=2;rounded=0;" edge="1" parent="1">
          <mxGeometry width="50" height="50" relative="1" as="geometry">
            <mxPoint x="180" y="220" as="sourcePoint" />
            <mxPoint x="180" y="200" as="targetPoint" />
          </mxGeometry>
        </mxCell>
        <mxCell id="LEV1PpEmKI19S0tq_E49-20" value="" style="endArrow=none;html=1;rounded=0;" edge="1" parent="1">
          <mxGeometry width="50" height="50" relative="1" as="geometry">
            <mxPoint x="180" y="230" as="sourcePoint" />
            <mxPoint x="180" y="220" as="targetPoint" />
          </mxGeometry>
        </mxCell>
        <mxCell id="LEV1PpEmKI19S0tq_E49-21" value="" style="endArrow=classic;html=1;rounded=0;" edge="1" parent="1">
          <mxGeometry width="50" height="50" relative="1" as="geometry">
            <mxPoint x="180" y="200" as="sourcePoint" />
            <mxPoint x="180" y="120" as="targetPoint" />
          </mxGeometry>
        </mxCell>
        <mxCell id="LEV1PpEmKI19S0tq_E49-22" value="adr" style="endArrow=classic;html=1;rounded=0;labelPosition=center;verticalLabelPosition=top;align=center;verticalAlign=bottom;labelBackgroundColor=none;" edge="1" parent="1">
          <mxGeometry width="50" height="50" relative="1" as="geometry">
            <mxPoint x="210" y="110" as="sourcePoint" />
            <mxPoint x="250" y="110" as="targetPoint" />
          </mxGeometry>
        </mxCell>
        <mxCell id="LEV1PpEmKI19S0tq_E49-23" value="&lt;div&gt;out&lt;/div&gt;&lt;div&gt;[2:0]&lt;br&gt;&lt;/div&gt;" style="endArrow=classic;html=1;rounded=0;labelBackgroundColor=none;" edge="1" parent="1">
          <mxGeometry width="50" height="50" relative="1" as="geometry">
            <mxPoint x="300" y="144.71" as="sourcePoint" />
            <mxPoint x="350" y="144.71" as="targetPoint" />
          </mxGeometry>
        </mxCell>
        <mxCell id="LEV1PpEmKI19S0tq_E49-24" value="" style="endArrow=classic;html=1;rounded=0;" edge="1" parent="1">
          <mxGeometry width="50" height="50" relative="1" as="geometry">
            <mxPoint x="210" y="70" as="sourcePoint" />
            <mxPoint x="470" y="70" as="targetPoint" />
          </mxGeometry>
        </mxCell>
        <mxCell id="LEV1PpEmKI19S0tq_E49-25" value="" style="endArrow=classic;html=1;rounded=0;" edge="1" parent="1">
          <mxGeometry width="50" height="50" relative="1" as="geometry">
            <mxPoint x="210" y="50" as="sourcePoint" />
            <mxPoint x="470" y="50" as="targetPoint" />
          </mxGeometry>
        </mxCell>
        <mxCell id="LEV1PpEmKI19S0tq_E49-27" value="" style="endArrow=classic;html=1;rounded=0;" edge="1" parent="1">
          <mxGeometry width="50" height="50" relative="1" as="geometry">
            <mxPoint x="430" y="140" as="sourcePoint" />
            <mxPoint x="470" y="140" as="targetPoint" />
          </mxGeometry>
        </mxCell>
        <mxCell id="LEV1PpEmKI19S0tq_E49-28" value="" style="endArrow=classic;html=1;rounded=0;" edge="1" parent="1">
          <mxGeometry width="50" height="50" relative="1" as="geometry">
            <mxPoint x="430" y="140" as="sourcePoint" />
            <mxPoint x="470" y="120" as="targetPoint" />
          </mxGeometry>
        </mxCell>
        <mxCell id="LEV1PpEmKI19S0tq_E49-29" value="" style="endArrow=classic;html=1;rounded=0;" edge="1" parent="1">
          <mxGeometry width="50" height="50" relative="1" as="geometry">
            <mxPoint x="430" y="140" as="sourcePoint" />
            <mxPoint x="470" y="160" as="targetPoint" />
          </mxGeometry>
        </mxCell>
        <mxCell id="LEV1PpEmKI19S0tq_E49-30" value="HSYNC" style="endArrow=classic;html=1;rounded=0;labelPosition=center;verticalLabelPosition=top;align=center;verticalAlign=bottom;labelBackgroundColor=none;" edge="1" parent="1">
          <mxGeometry width="50" height="50" relative="1" as="geometry">
            <mxPoint x="470" y="50" as="sourcePoint" />
            <mxPoint x="530" y="50" as="targetPoint" />
          </mxGeometry>
        </mxCell>
        <mxCell id="LEV1PpEmKI19S0tq_E49-31" value="VSYNC" style="endArrow=classic;html=1;rounded=0;labelPosition=center;verticalLabelPosition=top;align=center;verticalAlign=bottom;labelBackgroundColor=none;" edge="1" parent="1">
          <mxGeometry width="50" height="50" relative="1" as="geometry">
            <mxPoint x="470" y="70" as="sourcePoint" />
            <mxPoint x="530" y="70" as="targetPoint" />
          </mxGeometry>
        </mxCell>
        <mxCell id="LEV1PpEmKI19S0tq_E49-33" value="vga_red" style="endArrow=classic;html=1;rounded=0;labelPosition=center;verticalLabelPosition=top;align=center;verticalAlign=bottom;labelBackgroundColor=none;" edge="1" parent="1">
          <mxGeometry width="50" height="50" relative="1" as="geometry">
            <mxPoint x="470" y="120" as="sourcePoint" />
            <mxPoint x="530" y="120" as="targetPoint" />
          </mxGeometry>
        </mxCell>
        <mxCell id="LEV1PpEmKI19S0tq_E49-34" value="vga_green" style="endArrow=classic;html=1;rounded=0;labelPosition=center;verticalLabelPosition=top;align=center;verticalAlign=bottom;labelBackgroundColor=none;" edge="1" parent="1">
          <mxGeometry width="50" height="50" relative="1" as="geometry">
            <mxPoint x="470" y="140" as="sourcePoint" />
            <mxPoint x="530" y="140" as="targetPoint" />
          </mxGeometry>
        </mxCell>
        <mxCell id="LEV1PpEmKI19S0tq_E49-35" value="vga_blue" style="endArrow=classic;html=1;rounded=0;labelPosition=center;verticalLabelPosition=top;align=center;verticalAlign=bottom;labelBackgroundColor=none;" edge="1" parent="1">
          <mxGeometry width="50" height="50" relative="1" as="geometry">
            <mxPoint x="470" y="160" as="sourcePoint" />
            <mxPoint x="530" y="160" as="targetPoint" />
          </mxGeometry>
        </mxCell>
        <mxCell id="LEV1PpEmKI19S0tq_E49-36" value="" style="rounded=0;whiteSpace=wrap;html=1;fontColor=default;fillColor=none;" vertex="1" parent="1">
          <mxGeometry x="75" y="30" width="400" height="230" as="geometry" />
        </mxCell>
        <mxCell id="LEV1PpEmKI19S0tq_E49-37" value="vgacontroller" style="text;html=1;strokeColor=none;fillColor=none;align=center;verticalAlign=middle;whiteSpace=wrap;rounded=0;" vertex="1" parent="1">
          <mxGeometry x="390" y="240" width="80" height="20" as="geometry" />
        </mxCell>
        <mxCell id="LEV1PpEmKI19S0tq_E49-38" value="displaying time" style="endArrow=classic;html=1;rounded=0;labelBackgroundColor=none;labelPosition=center;verticalLabelPosition=top;align=center;verticalAlign=bottom;" edge="1" parent="1">
          <mxGeometry width="50" height="50" relative="1" as="geometry">
            <mxPoint x="210" y="90" as="sourcePoint" />
            <mxPoint x="350" y="90" as="targetPoint" />
          </mxGeometry>
        </mxCell>
      </root>
    </mxGraphModel>
  </diagram>
</mxfile>
